<?xml version="1.0" standalone="no"?>
<!DOCTYPE svg PUBLIC "-//W3C//DTD SVG 1.1//EN"
 "http://www.w3.org/Graphics/SVG/1.1/DTD/svg11.dtd">
<!-- Created with svg_stack (http://github.com/astraw/svg_stack) -->
<svg xmlns:sodipodi="http://sodipodi.sourceforge.net/DTD/sodipodi-0.dtd" xmlns="http://www.w3.org/2000/svg" version="1.1" width="138.0" height="109.0">
  <defs/>
  <g id="id0:id0" transform="matrix(1.25,0,0,1.25,0.0,0.0)"><g transform="translate(0.000000,87.200000) scale(0.040000,-0.040000)" fill="#f9fefd" stroke="none">
<path d="M1770 1660 l0 -70 59 0 c33 0 63 -4 66 -10 3 -5 17 -10 30 -10 13 0 27 -4 30 -10 3 -5 15 -10 26 -10 10 0 19 -4 19 -9 0 -5 12 -14 28 -20 27 -11 103 -80 152 -137 34 -39 82 -139 95 -199 22 -92 12 -257 -17 -290 -4 -5 -8 -19 -8 -32 0 -13 -4 -23 -10 -23 -5 0 -10 -9 -10 -20 0 -11 -4 -20 -8 -20 -5 0 -15 -12 -23 -27 -20 -40 -97 -120 -144 -151 -78 -52 -186 -92 -248 -92 l-37 0 0 -70 c0 -47 4 -70 12 -70 25 0 134 23 150 31 10 5 25 9 33 9 8 0 23 4 33 9 9 5 31 15 47 22 17 8 32 16 35 19 3 3 18 12 34 21 72 41 164 133 204 204 9 17 20 32 25 33 4 2 7 10 7 17 0 7 9 30 19 52 38 77 46 125 45 271 0 96 -4 146 -12 154 -7 7 -12 20 -12 30 0 10 -4 26 -9 36 -5 9 -19 40 -32 67 -13 28 -26 52 -30 55 -3 3 -8 10 -10 16 -9 26 -96 118 -150 158 -77 58 -199 116 -244 116 -13 0 -27 5 -30 10 -3 6 -31 10 -61 10 l-54 0 0 -70z"/>
<path d="M1138 1060 l4 -70 444 0 444 0 0 70 0 70 -447 0 -448 0 3 -70z"/>
</g>
</g>
  <g id="id1:id1" transform="matrix(1.25,0,0,1.25,0.0,0.0)"><g transform="translate(0.000000,87.200000) scale(0.040000,-0.040000)" fill="#e2e3e2" stroke="none">
<path d="M1764 1726 c-3 -7 -3 -40 -1 -72 l3 -59 2 67 c1 42 7 68 15 71 9 4 9 6 -1 6 -7 1 -15 -5 -18 -13z"/>
<path d="M2165 1590 c10 -11 20 -20 23 -20 3 0 -3 9 -13 20 -10 11 -20 20 -23 20 -3 0 3 -9 13 -20z"/>
<path d="M2050 1506 c0 -2 8 -10 18 -17 15 -13 16 -12 3 4 -13 16 -21 21 -21 13z"/>
<path d="M2370 1311 c0 -6 4 -13 10 -16 6 -3 7 1 4 9 -7 18 -14 21 -14 7z"/>
<path d="M2411 1154 c0 -11 3 -14 6 -6 3 7 2 16 -1 19 -3 4 -6 -2 -5 -13z"/>
<path d="M2281 1134 c0 -11 3 -14 6 -6 3 7 2 16 -1 19 -3 4 -6 -2 -5 -13z"/>
<path d="M1698 1133 c23 -2 61 -2 85 0 23 2 4 4 -43 4 -47 0 -66 -2 -42 -4z"/>
<path d="M1133 1055 c0 -38 2 -53 4 -32 2 20 2 52 0 70 -2 17 -4 1 -4 -38z"/>
<path d="M2423 1060 c0 -36 2 -50 4 -32 2 17 2 47 0 65 -2 17 -4 3 -4 -33z"/>
<path d="M2281 994 c0 -11 3 -14 6 -6 3 7 2 16 -1 19 -3 4 -6 -2 -5 -13z"/>
<path d="M2411 964 c0 -11 3 -14 6 -6 3 7 2 16 -1 19 -3 4 -6 -2 -5 -13z"/>
<path d="M2355 779 c-4 -6 -5 -12 -2 -15 2 -3 7 2 10 11 7 17 1 20 -8 4z"/>
<path d="M2115 678 l-50 -53 53 50 c48 46 57 55 49 55 -1 0 -25 -24 -52 -52z"/>
<path d="M2249 613 l-24 -28 28 24 c15 14 27 26 27 28 0 8 -8 1 -31 -24z"/>
<path d="M2019 603 c-13 -16 -12 -17 4 -4 16 13 21 21 13 21 -2 0 -10 -8 -17 -17z"/>
<path d="M2194 558 l-19 -23 23 19 c21 18 27 26 19 26 -2 0 -12 -10 -23 -22z"/>
<path d="M1838 533 c7 -3 16 -2 19 1 4 3 -2 6 -13 5 -11 0 -14 -3 -6 -6z"/>
<path d="M1763 460 c0 -41 2 -58 4 -37 2 20 2 54 0 75 -2 20 -4 3 -4 -38z"/>
<path d="M1995 440 c-3 -6 1 -7 9 -4 18 7 21 14 7 14 -6 0 -13 -4 -16 -10z"/>
<path d="M1935 420 c-3 -6 1 -7 9 -4 18 7 21 14 7 14 -6 0 -13 -4 -16 -10z"/>
<path d="M1868 403 c7 -3 16 -2 19 1 4 3 -2 6 -13 5 -11 0 -14 -3 -6 -6z"/>
<path d="M1828 393 c7 -3 16 -2 19 1 4 3 -2 6 -13 5 -11 0 -14 -3 -6 -6z"/>
</g>
</g>
  <g id="id2:id2" transform="matrix(1.25,0,0,1.25,0.0,0.0)"><g transform="translate(0.000000,87.200000) scale(0.040000,-0.040000)" fill="#c8c9c8" stroke="none">
<path d="M1803 1733 c9 -2 23 -2 30 0 6 3 -1 5 -18 5 -16 0 -22 -2 -12 -5z"/>
<path d="M1918 1713 c7 -3 16 -2 19 1 4 3 -2 6 -13 5 -11 0 -14 -3 -6 -6z"/>
<path d="M2070 1656 c0 -2 7 -7 16 -10 8 -3 12 -2 9 4 -6 10 -25 14 -25 6z"/>
<path d="M1833 1583 c9 -2 23 -2 30 0 6 3 -1 5 -18 5 -16 0 -22 -2 -12 -5z"/>
<path d="M1918 1563 c7 -3 16 -2 19 1 4 3 -2 6 -13 5 -11 0 -14 -3 -6 -6z"/>
<path d="M2230 1535 c13 -14 26 -25 28 -25 3 0 -5 11 -18 25 -13 14 -26 25 -28 25 -3 0 5 -11 18 -25z"/>
<path d="M2080 1476 c0 -2 8 -10 18 -17 15 -13 16 -12 3 4 -13 16 -21 21 -21 13z"/>
<path d="M2140 1416 c0 -2 8 -10 18 -17 15 -13 16 -12 3 4 -13 16 -21 21 -21 13z"/>
<path d="M2220 1301 c0 -6 4 -13 10 -16 6 -3 7 1 4 9 -7 18 -14 21 -14 7z"/>
<path d="M2261 1204 c0 -11 3 -14 6 -6 3 7 2 16 -1 19 -3 4 -6 -2 -5 -13z"/>
<path d="M2412 1195 c0 -16 2 -22 5 -12 2 9 2 23 0 30 -3 6 -5 -1 -5 -18z"/>
<path d="M1268 1133 c72 -2 192 -2 265 0 72 1 13 3 -133 3 -146 0 -205 -2 -132 -3z"/>
<path d="M1868 1133 c28 -2 76 -2 105 0 28 2 5 3 -53 3 -58 0 -81 -1 -52 -3z"/>
<path d="M2033 1065 c0 -38 2 -53 4 -32 2 20 2 52 0 70 -2 17 -4 1 -4 -38z"/>
<path d="M2283 1065 c0 -33 2 -45 4 -27 2 18 2 45 0 60 -2 15 -4 0 -4 -33z"/>
<path d="M1698 983 c23 -2 61 -2 85 0 23 2 4 4 -43 4 -47 0 -66 -2 -42 -4z"/>
<path d="M2412 930 c0 -14 2 -19 5 -12 2 6 2 18 0 25 -3 6 -5 1 -5 -13z"/>
<path d="M2261 924 c0 -11 3 -14 6 -6 3 7 2 16 -1 19 -3 4 -6 -2 -5 -13z"/>
<path d="M1783 533 c9 -2 25 -2 35 0 9 3 1 5 -18 5 -19 0 -27 -2 -17 -5z"/>
<path d="M1968 423 c7 -3 16 -2 19 1 4 3 -2 6 -13 5 -11 0 -14 -3 -6 -6z"/>
<path d="M1898 403 c7 -3 16 -2 19 1 4 3 -2 6 -13 5 -11 0 -14 -3 -6 -6z"/>
</g>
</g>
  <g id="id3:id3" transform="matrix(1.25,0,0,1.25,0.0,0.0)"><g transform="translate(0.000000,87.200000) scale(0.040000,-0.040000)" fill="#a7aaab" stroke="none">
<path d="M1848 1733 c6 -2 18 -2 25 0 6 3 1 5 -13 5 -14 0 -19 -2 -12 -5z"/>
<path d="M2185 1580 c10 -11 20 -20 23 -20 3 0 -3 9 -13 20 -10 11 -20 20 -23 20 -3 0 3 -9 13 -20z"/>
<path d="M1783 1583 c9 -2 23 -2 30 0 6 3 -1 5 -18 5 -16 0 -22 -2 -12 -5z"/>
<path d="M2110 1446 c0 -2 8 -10 18 -17 15 -13 16 -12 3 4 -13 16 -21 21 -21 13z"/>
<path d="M1125 1129 c-4 -6 -5 -12 -2 -15 2 -3 7 2 10 11 7 17 1 20 -8 4z"/>
<path d="M1925 990 l-110 -6 107 -2 c63 -1 109 2 113 8 3 6 5 9 3 8 -2 -1 -52 -5 -113 -8z"/>
<path d="M1268 983 c72 -2 192 -2 265 0 72 1 13 3 -133 3 -146 0 -205 -2 -132 -3z"/>
<path d="M1798 383 c6 -2 18 -2 25 0 6 3 1 5 -13 5 -14 0 -19 -2 -12 -5z"/>
</g>
</g>
  <g id="id4:id4" transform="matrix(1.25,0,0,1.25,0.0,0.0)"><g transform="translate(0.000000,87.200000) scale(0.040000,-0.040000)" fill="#868a8b" stroke="none">
<path d="M1753 1665 c0 -27 2 -38 4 -22 2 15 2 37 0 50 -2 12 -4 0 -4 -28z"/>
<path d="M2235 1540 c10 -11 20 -20 23 -20 3 0 -3 9 -13 20 -10 11 -20 20 -23 20 -3 0 3 -9 13 -20z"/>
<path d="M2432 1110 c0 -19 2 -27 5 -17 2 9 2 25 0 35 -3 9 -5 1 -5 -18z"/>
<path d="M1123 1060 c0 -30 2 -43 4 -27 2 15 2 39 0 55 -2 15 -4 2 -4 -28z"/>
<path d="M2433 1025 c0 -22 2 -30 4 -17 2 12 2 30 0 40 -3 9 -5 -1 -4 -23z"/>
<path d="M1753 470 c0 -36 2 -50 4 -32 2 17 2 47 0 65 -2 17 -4 3 -4 -33z"/>
<path d="M1838 383 c7 -3 16 -2 19 1 4 3 -2 6 -13 5 -11 0 -14 -3 -6 -6z"/>
</g>
</g>
  <g id="id5:id5" transform="matrix(1.25,0,0,1.25,0.0,0.0)"><g transform="translate(0.000000,87.200000) scale(0.040000,-0.040000)" fill="#f38857" stroke="none">
<path d="M1033 1722 c-6 -4 26 -6 70 -4 126 4 142 9 37 10 -52 1 -100 -2 -107 -6z"/>
<path d="M945 1700 c-3 -5 -14 -10 -24 -10 -21 0 -84 -30 -78 -37 5 -5 157 47 157 53 0 9 -49 3 -55 -6z"/>
<path d="M1280 1700 c0 -5 17 -10 38 -10 27 0 33 3 22 10 -20 13 -60 13 -60 0z"/>
<path d="M1390 1671 c19 -10 46 -21 60 -25 14 -4 3 5 -24 19 -28 14 -55 25 -60 25 -6 -1 5 -9 24 -19z"/>
<path d="M796 1635 c-11 -8 -15 -15 -10 -15 6 0 19 7 30 15 10 8 15 14 9 14 -5 0 -19 -6 -29 -14z"/>
<path d="M1480 1626 c0 -7 93 -66 103 -66 6 0 -11 16 -36 35 -40 31 -67 43 -67 31z"/>
<path d="M681 1543 c-74 -74 -111 -120 -111 -137 0 -6 7 0 16 12 9 13 25 33 37 45 12 13 33 36 47 52 14 17 43 45 65 63 22 17 34 32 27 32 -7 0 -44 -30 -81 -67z"/>
<path d="M1033 1593 c9 -2 25 -2 35 0 9 3 1 5 -18 5 -19 0 -27 -2 -17 -5z"/>
<path d="M1218 1593 c12 -2 32 -2 45 0 12 2 2 4 -23 4 -25 0 -35 -2 -22 -4z"/>
<path d="M955 1580 c-8 -13 15 -13 35 0 12 8 11 10 -7 10 -12 0 -25 -4 -28 -10z"/>
<path d="M1295 1580 c3 -5 17 -10 31 -10 13 0 24 -4 24 -10 0 -5 8 -10 18 -10 12 0 8 6 -13 20 -31 21 -71 27 -60 10z"/>
<path d="M880 1545 c-33 -19 -10 -19 26 0 16 8 22 15 14 15 -8 -1 -26 -7 -40 -15z"/>
<path d="M1390 1542 c0 -4 15 -13 33 -21 71 -32 199 -189 228 -281 l7 -25 1 25 c2 43 -87 173 -162 238 -61 54 -107 81 -107 64z"/>
<path d="M1616 1518 c17 -18 39 -46 49 -63 10 -16 20 -24 22 -18 2 6 -4 22 -14 34 -36 44 -70 79 -79 79 -4 0 6 -15 22 -32z"/>
<path d="M799 1491 c-13 -11 -19 -20 -14 -20 14 0 50 28 43 34 -3 3 -16 -3 -29 -14z"/>
<path d="M715 1403 c-16 -20 -36 -50 -44 -66 -8 -16 -20 -31 -28 -34 -7 -3 -13 -16 -13 -30 0 -13 4 -21 10 -18 6 3 10 13 10 21 0 18 51 96 88 137 14 15 22 27 16 27 -5 0 -22 -17 -39 -37z"/>
<path d="M1701 1419 c-1 -9 7 -27 18 -40 10 -13 21 -31 24 -39 4 -11 6 -11 6 -2 1 8 -7 26 -18 40 -10 15 -21 34 -24 42 -5 13 -6 12 -6 -1z"/>
<path d="M536 1348 c-23 -53 -37 -110 -25 -102 5 3 9 11 9 18 0 7 11 35 25 62 26 52 30 64 17 64 -4 0 -16 -19 -26 -42z"/>
<path d="M1750 1308 c0 -7 5 -20 10 -28 8 -12 10 -11 10 7 0 12 -4 25 -10 28 -5 3 -10 0 -10 -7z"/>
<path d="M1783 1215 c0 -22 2 -30 4 -17 2 12 2 30 0 40 -3 9 -5 -1 -4 -23z"/>
<path d="M622 1220 c0 -14 2 -19 5 -12 2 6 2 18 0 25 -3 6 -5 1 -5 -13z"/>
<path d="M492 1205 c0 -16 2 -22 5 -12 2 9 2 23 0 30 -3 6 -5 -1 -5 -18z"/>
<path d="M1671 1194 c0 -11 3 -14 6 -6 3 7 2 16 -1 19 -3 4 -6 -2 -5 -13z"/>
<path d="M596 1149 c-8 -40 -6 -145 4 -184 4 -17 7 21 7 93 0 67 -1 122 -2 122 -1 0 -5 -14 -9 -31z"/>
<path d="M475 1097 c-4 -34 -2 -78 3 -97 9 -30 10 -20 11 63 1 53 -1 97 -3 97 -3 0 -7 -28 -11 -63z"/>
<path d="M492 925 c0 -16 2 -22 5 -12 2 9 2 23 0 30 -3 6 -5 -1 -5 -18z"/>
<path d="M1777 916 c-5 -21 -6 -40 -3 -43 9 -10 18 24 14 54 -3 26 -4 25 -11 -11z"/>
<path d="M621 910 c-1 -25 19 -90 28 -90 5 0 14 -14 21 -30 13 -33 80 -111 80 -94 0 6 -13 23 -30 39 -16 16 -30 33 -30 38 0 5 -8 21 -19 35 -10 15 -26 47 -34 72 -9 25 -16 38 -16 30z"/>
<path d="M1140 891 c0 -5 30 -7 68 -4 96 7 99 11 10 12 -43 1 -78 -3 -78 -8z"/>
<path d="M1368 893 c34 -2 88 -2 120 0 31 2 3 3 -63 3 -66 0 -92 -1 -57 -3z"/>
<path d="M510 853 c0 -12 5 -25 10 -28 13 -8 13 15 0 35 -8 12 -10 11 -10 -7z"/>
<path d="M1757 847 c-11 -29 -9 -43 4 -30 6 6 9 19 7 29 -3 18 -4 18 -11 1z"/>
<path d="M530 803 c0 -12 17 -45 57 -111 34 -55 139 -159 194 -191 65 -38 122 -63 184 -79 66 -18 107 -23 100 -12 -3 6 -17 10 -30 10 -42 0 -200 58 -249 90 -77 53 -189 173 -216 233 -23 52 -40 77 -40 60z"/>
<path d="M1146 792 c-10 -16 11 -19 202 -21 125 -2 182 1 182 8 0 7 -54 11 -167 11 -93 0 -178 3 -189 6 -12 3 -24 1 -28 -4z"/>
<path d="M1732 780 c-18 -29 -15 -48 4 -22 8 12 14 27 12 32 -2 6 -9 1 -16 -10z"/>
<path d="M1705 719 c-4 -6 -5 -12 -2 -15 2 -3 7 2 10 11 7 17 1 20 -8 4z"/>
<path d="M1506 669 c-16 -16 -25 -29 -19 -29 11 0 58 48 52 54 -2 2 -17 -9 -33 -25z"/>
<path d="M1663 666 c-22 -21 -76 -96 -69 -96 2 0 25 25 51 55 48 57 58 80 18 41z"/>
<path d="M802 635 c21 -19 46 -35 55 -34 16 0 15 1 -2 9 -11 4 -31 20 -44 34 -14 14 -29 26 -35 26 -6 0 6 -16 26 -35z"/>
<path d="M1422 608 c-18 -11 -31 -22 -29 -25 5 -4 77 36 77 43 0 8 -15 2 -48 -18z"/>
<path d="M876 580 c5 -5 23 -11 39 -14 17 -2 23 -1 15 1 -8 3 -19 9 -24 14 -14 13 -43 12 -30 -1z"/>
<path d="M1310 552 c-21 -9 -78 -19 -140 -23 l-105 -7 120 3 c103 2 125 5 155 23 41 25 21 28 -30 4z"/>
<path d="M1505 519 c-74 -51 -71 -49 -54 -49 9 0 25 9 37 20 12 11 24 20 28 20 3 0 19 11 36 25 46 39 20 30 -47 -16z"/>
<path d="M970 540 c8 -5 24 -10 35 -10 17 0 17 2 5 10 -8 5 -24 10 -35 10 -17 0 -17 -2 -5 -10z"/>
<path d="M1385 456 c-11 -7 -60 -21 -110 -31 -106 -20 -124 -30 -40 -20 77 9 195 45 195 60 0 10 -26 5 -45 -9z"/>
</g>
</g>
  <g id="id6:id6" transform="matrix(1.25,0,0,1.25,0.0,0.0)"><g transform="translate(0.000000,87.200000) scale(0.040000,-0.040000)" fill="#f97e45" stroke="none">
<path d="M1004 1709 c-3 -5 -22 -14 -42 -20 -27 -8 -38 -17 -39 -31 -2 -19 -1 -19 17 -3 13 12 27 15 49 10 24 -5 31 -3 31 9 0 11 9 16 30 16 17 0 30 5 30 11 0 8 23 10 73 6 77 -5 82 -6 139 -26 21 -7 42 -10 48 -6 5 3 23 -1 39 -10 43 -22 53 -18 11 5 -19 11 -52 19 -72 20 -28 0 -38 4 -38 16 0 13 -18 15 -135 13 -75 -1 -138 -6 -141 -10z"/>
<path d="M863 1656 c-39 -14 -58 -31 -23 -21 29 9 80 35 65 33 -5 0 -24 -6 -42 -12z"/>
<path d="M1434 1641 c4 -6 14 -11 22 -11 8 0 12 -4 9 -10 -6 -9 0 -19 33 -55 7 -8 11 -19 8 -23 -7 -12 -66 -13 -66 -1 0 5 -6 9 -14 9 -24 0 -68 27 -57 35 18 10 4 23 -21 18 -13 -2 -66 2 -118 10 -81 12 -107 12 -174 1 -44 -8 -80 -15 -82 -16 -1 -2 75 -3 169 -3 l172 0 70 -39 c38 -21 95 -61 125 -88 61 -56 150 -189 150 -226 0 -13 7 -30 15 -38 8 -9 15 -11 15 -5 0 5 -4 13 -10 16 -5 3 -10 19 -10 35 0 16 -5 32 -11 35 -7 5 -2 16 12 31 12 13 17 24 11 24 -6 0 -14 -4 -17 -10 -8 -14 -35 -13 -35 1 0 6 -15 32 -34 58 -29 40 -32 48 -19 60 8 7 11 16 8 19 -4 4 -13 -1 -20 -11 -13 -18 -15 -17 -45 14 -26 28 -29 35 -17 44 8 5 17 21 21 33 5 15 13 21 22 18 39 -16 45 -15 14 2 -19 11 -47 31 -62 45 -29 27 -76 48 -64 28z m81 -51 c3 -5 -1 -10 -9 -10 -9 0 -16 5 -16 10 0 6 4 10 9 10 6 0 13 -4 16 -10z"/>
<path d="M785 1620 c-16 -7 -17 -9 -3 -9 9 -1 20 4 23 9 7 11 7 11 -20 0z"/>
<path d="M865 1610 c-3 -5 -1 -10 4 -10 6 0 11 5 11 10 0 6 -2 10 -4 10 -3 0 -8 -4 -11 -10z"/>
<path d="M702 1548 c-24 -22 -51 -53 -62 -68 -18 -25 -18 -26 0 -27 13 -1 17 3 13 13 -3 8 7 27 23 43 42 40 78 81 73 81 -2 0 -23 -19 -47 -42z"/>
<path d="M935 1579 c-4 -6 -22 -8 -45 -4 -23 4 -41 2 -45 -4 -3 -6 -18 -11 -32 -11 -19 0 -24 -4 -19 -16 6 -14 4 -15 -10 -4 -13 12 -17 11 -25 -1 -6 -9 -4 -18 6 -25 22 -16 19 -26 -20 -61 -19 -18 -35 -37 -35 -43 0 -13 -27 -13 -35 0 -13 21 -23 -2 -14 -30 8 -23 7 -34 -5 -51 -13 -20 -16 -20 -22 -6 -3 9 -12 17 -20 17 -17 0 -18 -16 -3 -26 15 -9 5 -94 -11 -104 -18 -11 -23 -50 -21 -175 1 -82 4 -111 15 -117 20 -11 29 -57 15 -75 -10 -11 -10 -16 0 -23 8 -4 10 -13 7 -19 -4 -6 -3 -11 3 -11 5 0 13 5 17 12 14 22 32 -21 27 -63 -5 -32 -3 -39 11 -39 18 0 22 15 6 25 -6 4 -8 11 -4 16 3 5 14 -1 24 -13 13 -17 15 -25 7 -31 -8 -6 -6 -7 4 -4 20 6 89 -60 74 -71 -6 -4 -16 -15 -23 -24 -12 -15 -10 -17 17 -16 52 2 45 29 -29 106 -37 39 -73 85 -80 101 -7 17 -16 31 -21 31 -10 0 -29 66 -29 103 0 16 -4 26 -9 22 -5 -3 -13 20 -17 51 -8 66 0 174 14 183 5 3 13 30 17 59 5 35 15 62 31 79 13 14 24 31 24 37 0 15 134 156 147 156 12 0 54 35 49 41 -2 2 10 5 27 6 29 2 76 33 50 33 -7 0 -15 -5 -18 -11z"/>
<path d="M1593 1517 c-2 -14 1 -17 6 -9 11 18 36 -12 28 -32 -4 -11 -1 -13 10 -9 12 5 15 2 10 -10 -4 -11 1 -25 13 -37 16 -16 20 -17 20 -5 0 19 -40 84 -67 107 -18 16 -19 16 -20 -5z"/>
<path d="M1530 1510 c0 -5 5 -10 10 -10 6 0 10 5 10 10 0 6 -4 10 -10 10 -5 0 -10 -4 -10 -10z"/>
<path d="M587 1421 c-9 -16 -17 -35 -17 -43 1 -7 10 5 20 26 24 47 21 58 -3 17z"/>
<path d="M1690 1416 c0 -8 4 -17 9 -20 5 -4 7 3 4 14 -6 23 -13 26 -13 6z"/>
<path d="M1710 1377 c0 -3 9 -21 21 -39 17 -28 19 -29 14 -8 -7 24 -35 62 -35 47z"/>
<path d="M555 1350 c-3 -5 -1 -10 4 -10 6 0 11 5 11 10 0 6 -2 10 -4 10 -3 0 -8 -4 -11 -10z"/>
<path d="M530 1293 c-7 -21 -17 -43 -21 -49 -5 -6 -11 -47 -13 -90 l-5 -79 11 78 c10 71 12 77 34 77 15 0 24 6 24 16 0 10 -6 14 -15 10 -18 -6 -19 3 -5 40 6 15 9 29 6 31 -2 2 -10 -13 -16 -34z"/>
<path d="M1690 1290 c0 -5 5 -10 10 -10 6 0 10 5 10 10 0 6 -4 10 -10 10 -5 0 -10 -4 -10 -10z"/>
<path d="M1755 1270 c3 -14 10 -38 15 -55 l8 -30 1 35 c0 19 -7 44 -16 55 -15 19 -15 19 -8 -5z"/>
<path d="M495 973 c2 -68 8 -97 19 -109 9 -8 16 -23 16 -32 0 -9 9 -30 20 -47 23 -35 26 -29 5 11 -8 16 -15 38 -15 49 0 11 -7 30 -15 42 -8 11 -19 56 -24 99 l-9 79 3 -92z"/>
<path d="M1250 892 c-25 -1 -60 -5 -77 -7 -31 -6 -33 -9 -33 -44 0 -35 3 -39 31 -45 40 -8 354 -8 346 0 -3 3 -80 7 -172 7 -135 2 -167 5 -175 17 -28 45 2 52 227 56 95 1 179 6 187 11 14 8 -226 12 -334 5z"/>
<path d="M1750 878 c0 -34 -20 -101 -28 -93 -4 4 -7 11 -7 16 0 5 -4 8 -10 7 -5 -2 -9 -7 -8 -13 1 -5 5 -21 8 -35 5 -18 -1 -34 -22 -59 -25 -30 -32 -32 -50 -22 -17 9 -25 8 -38 -5 -16 -17 -45 -13 -45 7 0 6 7 8 16 5 12 -5 15 -2 10 10 -4 9 -1 23 5 30 9 11 9 14 0 14 -6 0 -14 -8 -18 -17 -10 -30 -98 -106 -157 -137 -31 -16 -56 -31 -56 -33 0 -1 12 -3 26 -3 14 0 23 4 20 8 -7 12 51 44 73 40 23 -4 51 19 45 36 -3 8 2 16 10 19 17 7 30 -8 21 -23 -4 -6 1 -7 11 -3 23 9 48 -25 33 -44 -13 -15 -49 -18 -49 -3 0 6 -4 10 -10 10 -5 0 -10 -6 -10 -12 0 -7 -7 -26 -15 -42 l-15 -29 22 17 c13 9 35 22 50 28 14 7 39 31 53 54 15 24 39 53 54 66 14 13 32 37 40 53 7 17 19 41 26 55 7 14 15 37 19 53 3 15 10 27 15 27 5 0 7 9 4 20 -7 27 -23 25 -23 -2z m-142 -263 c-3 -3 -9 2 -12 12 -6 14 -5 15 5 6 7 -7 10 -15 7 -18z m-103 5 c-3 -5 -10 -10 -16 -10 -5 0 -9 5 -9 10 0 6 7 10 16 10 8 0 12 -4 9 -10z"/>
<path d="M1440 850 c0 -5 5 -10 10 -10 6 0 10 5 10 10 0 6 -4 10 -10 10 -5 0 -10 -4 -10 -10z"/>
<path d="M1540 800 c-17 -10 -14 -15 18 -25 19 -6 23 -4 20 11 -4 21 -18 27 -38 14z"/>
<path d="M570 744 c0 -14 40 -70 68 -96 l29 -27 -5 25 c-3 16 -10 23 -18 20 -15 -6 -54 43 -54 68 0 9 -4 16 -10 16 -5 0 -10 -3 -10 -6z"/>
<path d="M675 600 c3 -5 8 -10 11 -10 2 0 4 5 4 10 0 6 -5 10 -11 10 -5 0 -7 -4 -4 -10z"/>
<path d="M844 595 c17 -13 17 -15 3 -21 -22 -8 -22 -22 0 -20 10 0 18 -5 18 -13 0 -21 24 -26 31 -7 3 9 17 16 31 16 13 0 21 -4 18 -10 -3 -5 3 -10 15 -10 34 0 2 26 -42 34 -21 4 -41 13 -45 20 -5 7 -17 16 -28 19 -19 7 -20 7 -1 -8z"/>
<path d="M725 559 c3 -8 20 -23 38 -33 18 -11 28 -15 22 -10 -50 46 -65 57 -60 43z"/>
<path d="M1321 538 c-8 -9 -57 -13 -172 -13 -90 0 -146 -3 -127 -7 18 -4 88 -7 156 -7 104 1 126 4 145 20 12 10 20 18 17 19 -4 0 -12 -6 -19 -12z"/>
<path d="M809 496 c14 -17 51 -28 51 -15 0 5 -7 9 -15 9 -8 0 -15 5 -15 10 0 6 -7 10 -16 10 -13 0 -14 -3 -5 -14z"/>
<path d="M1380 499 c0 -5 5 -7 10 -4 6 3 10 8 10 11 0 2 -4 4 -10 4 -5 0 -10 -5 -10 -11z"/>
<path d="M1460 500 c0 -5 -9 -10 -19 -10 -11 0 -23 -4 -26 -10 -3 -5 0 -10 8 -10 18 0 67 39 50 40 -7 0 -13 -4 -13 -10z"/>
<path d="M1115 480 c3 -5 11 -10 16 -10 6 0 7 5 4 10 -3 6 -11 10 -16 10 -6 0 -7 -4 -4 -10z"/>
<path d="M1158 483 c6 -2 18 -2 25 0 6 3 1 5 -13 5 -14 0 -19 -2 -12 -5z"/>
<path d="M883 472 c-14 -9 116 -52 154 -52 12 0 25 -4 28 -10 3 -5 25 -10 48 -10 58 0 248 40 272 58 l20 14 -20 -7 c-11 -4 -33 -10 -50 -12 -16 -3 -37 -7 -45 -11 -24 -9 -160 -28 -166 -23 -3 3 -15 6 -27 6 -80 4 -87 6 -87 20 0 11 -8 13 -30 9 -19 -4 -38 -1 -55 10 -28 18 -26 18 -42 8z"/>
<path d="M1050 470 c0 -5 7 -10 15 -10 8 0 15 5 15 10 0 6 -7 10 -15 10 -8 0 -15 -4 -15 -10z"/>
</g>
</g>
  <g id="id7:id7" transform="matrix(1.25,0,0,1.25,0.0,0.0)"><g transform="translate(0.000000,87.200000) scale(0.040000,-0.040000)" fill="#d5784d" stroke="none">
<path d="M1238 1723 c6 -2 18 -2 25 0 6 3 1 5 -13 5 -14 0 -19 -2 -12 -5z"/>
<path d="M988 1713 c7 -3 16 -2 19 1 4 3 -2 6 -13 5 -11 0 -14 -3 -6 -6z"/>
<path d="M925 1700 c-16 -7 -17 -9 -3 -9 9 -1 20 4 23 9 7 11 7 11 -20 0z"/>
<path d="M1358 1693 c7 -3 16 -2 19 1 4 3 -2 6 -13 5 -11 0 -14 -3 -6 -6z"/>
<path d="M1397 1679 c7 -7 15 -10 18 -7 3 3 -2 9 -12 12 -14 6 -15 5 -6 -5z"/>
<path d="M830 1660 c-9 -6 -10 -10 -3 -10 6 0 15 5 18 10 8 12 4 12 -15 0z"/>
<path d="M1477 1639 c7 -7 15 -10 18 -7 3 3 -2 9 -12 12 -14 6 -15 5 -6 -5z"/>
<path d="M749 1609 l-24 -20 28 17 c15 9 27 18 27 20 0 8 -8 4 -31 -17z"/>
<path d="M1093 1593 c9 -2 23 -2 30 0 6 3 -1 5 -18 5 -16 0 -22 -2 -12 -5z"/>
<path d="M1163 1593 c9 -2 23 -2 30 0 6 3 -1 5 -18 5 -16 0 -22 -2 -12 -5z"/>
<path d="M1550 1596 c0 -2 8 -10 18 -17 15 -13 16 -12 3 4 -13 16 -21 21 -21 13z"/>
<path d="M1008 1583 c7 -3 16 -2 19 1 4 3 -2 6 -13 5 -11 0 -14 -3 -6 -6z"/>
<path d="M1250 1586 c0 -2 11 -6 25 -8 13 -3 22 -1 19 3 -5 9 -44 13 -44 5z"/>
<path d="M665 1538 l-40 -43 43 40 c39 36 47 45 39 45 -2 0 -21 -19 -42 -42z"/>
<path d="M935 1560 c-3 -6 1 -7 9 -4 18 7 21 14 7 14 -6 0 -13 -4 -16 -10z"/>
<path d="M1328 1563 c7 -3 16 -2 19 1 4 3 -2 6 -13 5 -11 0 -14 -3 -6 -6z"/>
<path d="M895 1540 c-3 -6 1 -7 9 -4 18 7 21 14 7 14 -6 0 -13 -4 -16 -10z"/>
<path d="M1414 1521 c7 -11 46 -35 46 -28 0 3 -12 12 -26 22 -15 9 -23 12 -20 6z"/>
<path d="M1661 1483 c7 -12 15 -20 18 -17 3 2 -3 12 -13 22 -17 16 -18 16 -5 -5z"/>
<path d="M1505 1450 c21 -22 41 -40 44 -40 3 0 -13 18 -34 40 -21 22 -41 40 -44 40 -3 0 13 -18 34 -40z"/>
<path d="M589 1453 c-13 -16 -12 -17 4 -4 9 7 17 15 17 17 0 8 -8 3 -21 -13z"/>
<path d="M769 1453 c-13 -16 -12 -17 4 -4 9 7 17 15 17 17 0 8 -8 3 -21 -13z"/>
<path d="M1710 1411 c0 -6 4 -13 10 -16 6 -3 7 1 4 9 -7 18 -14 21 -14 7z"/>
<path d="M719 1393 c-13 -16 -12 -17 4 -4 16 13 21 21 13 21 -2 0 -10 -8 -17 -17z"/>
<path d="M665 1314 c-9 -14 -15 -27 -13 -30 2 -2 12 10 22 26 21 37 15 40 -9 4z"/>
<path d="M1750 1331 c0 -6 4 -13 10 -16 6 -3 7 1 4 9 -7 18 -14 21 -14 7z"/>
<path d="M501 1278 c0 -9 -4 -25 -7 -35 -5 -17 -5 -17 6 0 6 10 9 25 7 35 -4 15 -5 15 -6 0z"/>
<path d="M1770 1276 c0 -8 4 -17 9 -20 5 -4 7 3 4 14 -6 23 -13 26 -13 6z"/>
<path d="M635 1249 c-4 -6 -5 -12 -2 -15 2 -3 7 2 10 11 7 17 1 20 -8 4z"/>
<path d="M1656 1207 c3 -10 9 -15 12 -12 3 3 0 11 -7 18 -10 9 -11 8 -5 -6z"/>
<path d="M1790 1198 c0 -9 -6 -19 -12 -21 -10 -4 -10 -6 0 -6 14 -1 28 26 18 36 -3 4 -6 -1 -6 -9z"/>
<path d="M482 1180 c0 -14 2 -19 5 -12 2 6 2 18 0 25 -3 6 -5 1 -5 -13z"/>
<path d="M1680 1185 c-7 -9 -10 -18 -7 -21 3 -3 10 4 17 15 13 25 8 27 -10 6z"/>
<path d="M611 1164 c0 -11 3 -14 6 -6 3 7 2 16 -1 19 -3 4 -6 -2 -5 -13z"/>
<path d="M472 1125 c0 -16 2 -22 5 -12 2 9 2 23 0 30 -3 6 -5 -1 -5 -18z"/>
<path d="M1698 1143 c18 -2 45 -2 60 0 15 2 0 4 -33 4 -33 0 -45 -2 -27 -4z"/>
<path d="M602 1065 c0 -16 2 -22 5 -12 2 9 2 23 0 30 -3 6 -5 -1 -5 -18z"/>
<path d="M471 994 c0 -11 3 -14 6 -6 3 7 2 16 -1 19 -3 4 -6 -2 -5 -13z"/>
<path d="M611 964 c0 -11 3 -14 6 -6 3 7 2 16 -1 19 -3 4 -6 -2 -5 -13z"/>
<path d="M482 950 c0 -14 2 -19 5 -12 2 6 2 18 0 25 -3 6 -5 1 -5 -13z"/>
<path d="M1788 933 c5 -21 7 -23 10 -9 2 10 0 22 -6 28 -6 6 -7 0 -4 -19z"/>
<path d="M1131 840 c1 -57 5 -70 18 -70 10 0 12 3 5 8 -6 4 -12 33 -13 65 l-3 58 245 -3 c135 -2 240 0 234 4 -7 4 -119 8 -250 8 l-238 0 2 -70z"/>
<path d="M490 881 c0 -6 4 -13 10 -16 6 -3 7 1 4 9 -7 18 -14 21 -14 7z"/>
<path d="M1771 844 c0 -11 3 -14 6 -6 3 7 2 16 -1 19 -3 4 -6 -2 -5 -13z"/>
<path d="M516 817 c3 -10 9 -15 12 -12 3 3 0 11 -7 18 -10 9 -11 8 -5 -6z"/>
<path d="M1755 809 c-4 -6 -5 -12 -2 -15 2 -3 7 2 10 11 7 17 1 20 -8 4z"/>
<path d="M536 767 c3 -10 9 -15 12 -12 3 3 0 11 -7 18 -10 9 -11 8 -5 -6z"/>
<path d="M690 773 c0 -6 8 -17 18 -24 16 -13 16 -13 2 6 -8 11 -16 22 -17 24 -2 2 -3 0 -3 -6z"/>
<path d="M1208 773 c7 -3 16 -2 19 1 4 3 -2 6 -13 5 -11 0 -14 -3 -6 -6z"/>
<path d="M1538 773 c7 -3 16 -2 19 1 4 3 -2 6 -13 5 -11 0 -14 -3 -6 -6z"/>
<path d="M580 690 c6 -11 13 -20 16 -20 2 0 0 9 -6 20 -6 11 -13 20 -16 20 -2 0 0 -9 6 -20z"/>
<path d="M750 696 c0 -2 8 -10 18 -17 15 -13 16 -12 3 4 -13 16 -21 21 -21 13z"/>
<path d="M635 620 c21 -22 41 -40 44 -40 3 0 -13 18 -34 40 -21 22 -41 40 -44 40 -3 0 13 -18 34 -40z"/>
<path d="M1455 635 l-30 -24 27 12 c15 6 30 18 33 25 6 16 5 16 -30 -13z"/>
<path d="M1654 638 l-19 -23 23 19 c21 18 27 26 19 26 -2 0 -12 -10 -23 -22z"/>
<path d="M827 629 c12 -12 24 -21 27 -18 2 2 -8 13 -22 23 l-27 19 22 -24z"/>
<path d="M1370 584 c-17 -9 -20 -14 -9 -14 9 0 22 7 29 15 15 18 13 18 -20 -1z"/>
<path d="M907 579 c7 -7 15 -10 18 -7 3 3 -2 9 -12 12 -14 6 -15 5 -6 -5z"/>
<path d="M690 566 c0 -2 8 -10 18 -17 15 -13 16 -12 3 4 -13 16 -21 21 -21 13z"/>
<path d="M1010 540 c8 -5 22 -9 30 -9 10 0 8 3 -5 9 -27 12 -43 12 -25 0z"/>
<path d="M1240 540 c-20 -6 -21 -8 -5 -8 11 0 29 3 40 8 25 11 -1 11 -35 0z"/>
<path d="M1549 533 c-13 -16 -12 -17 4 -4 16 13 21 21 13 21 -2 0 -10 -8 -17 -17z"/>
<path d="M830 466 c0 -2 7 -7 16 -10 8 -3 12 -2 9 4 -6 10 -25 14 -25 6z"/>
<path d="M1425 460 c-3 -6 1 -7 9 -4 18 7 21 14 7 14 -6 0 -13 -4 -16 -10z"/>
<path d="M870 446 c0 -2 9 -6 20 -9 11 -3 18 -1 14 4 -5 9 -34 13 -34 5z"/>
<path d="M950 420 c8 -5 20 -10 25 -10 6 0 3 5 -5 10 -8 5 -19 10 -25 10 -5 0 -3 -5 5 -10z"/>
<path d="M1018 403 c6 -2 18 -2 25 0 6 3 1 5 -13 5 -14 0 -19 -2 -12 -5z"/>
<path d="M1243 403 c9 -2 23 -2 30 0 6 3 -1 5 -18 5 -16 0 -22 -2 -12 -5z"/>
<path d="M1098 393 c23 -2 61 -2 85 0 23 2 4 4 -43 4 -47 0 -66 -2 -42 -4z"/>
</g>
</g>
  <g id="id8:id8" transform="matrix(1.25,0,0,1.25,0.0,0.0)"><g transform="translate(0.000000,87.200000) scale(0.040000,-0.040000)" fill="#fc7738" stroke="none">
<path d="M1080 1701 c0 -6 -13 -11 -30 -11 -21 0 -30 -5 -30 -16 0 -12 -7 -14 -31 -9 -22 5 -36 2 -51 -12 -20 -16 -21 -17 -15 0 8 21 10 21 -49 -4 -90 -38 -99 -43 -163 -106 -44 -44 -61 -68 -57 -79 4 -12 2 -15 -9 -10 -20 7 -49 -26 -65 -74 -7 -22 -16 -40 -20 -40 -6 0 -30 -67 -30 -83 0 -4 7 -4 15 -1 9 4 15 0 15 -10 0 -10 -9 -16 -24 -16 -22 0 -24 -5 -33 -81 -10 -94 1 -232 23 -263 7 -11 14 -28 14 -38 0 -23 32 -98 42 -98 5 0 8 -7 8 -16 0 -26 39 -74 55 -67 10 3 15 -1 15 -16 0 -32 118 -141 153 -141 10 0 17 -4 17 -10 0 -5 7 -10 15 -10 8 0 15 -5 15 -11 0 -7 9 -9 21 -6 12 3 32 -1 45 -10 16 -10 35 -13 54 -9 22 4 30 2 30 -9 0 -14 7 -16 87 -20 12 0 24 -3 27 -6 7 -7 153 14 162 23 4 5 20 8 36 8 16 0 48 9 70 20 23 11 48 20 55 20 7 0 13 3 13 8 0 4 10 12 22 17 13 6 27 24 32 43 8 30 26 45 26 22 0 -15 36 -12 49 3 15 19 -10 53 -33 44 -10 -4 -15 -3 -11 3 9 15 -4 30 -21 23 -8 -3 -13 -11 -10 -19 6 -17 -22 -40 -45 -36 -22 4 -80 -28 -73 -40 3 -4 -7 -8 -21 -8 -15 0 -38 -9 -51 -19 -20 -16 -43 -19 -137 -20 -115 -2 -250 15 -241 31 3 4 -6 8 -19 8 -14 0 -28 -7 -31 -16 -7 -19 -31 -14 -31 7 0 8 -8 13 -18 13 -22 -2 -22 12 0 20 14 6 14 8 -3 21 -24 18 -34 19 -34 2 0 -9 -12 -14 -31 -15 -27 -1 -29 1 -17 16 7 9 17 20 23 24 15 11 -54 77 -74 71 -10 -3 -12 -2 -4 4 8 6 6 14 -7 31 -10 12 -21 18 -24 13 -4 -5 -2 -12 4 -16 16 -10 12 -25 -6 -25 -14 0 -16 7 -11 39 5 42 -13 85 -27 63 -4 -7 -12 -12 -17 -12 -6 0 -7 5 -3 11 3 6 1 15 -7 19 -10 7 -10 12 0 23 14 18 5 64 -15 75 -11 6 -14 35 -15 117 -2 125 3 164 21 175 16 10 26 95 11 104 -15 10 -14 26 3 26 8 0 17 -8 20 -17 6 -14 9 -14 22 6 12 17 13 28 5 51 -9 28 1 51 14 30 8 -13 35 -13 35 0 0 6 16 25 35 43 39 35 42 45 20 61 -10 7 -12 16 -6 25 8 12 12 13 25 1 14 -11 16 -10 10 4 -5 12 0 16 19 16 14 0 29 5 33 11 4 6 20 8 38 5 20 -4 44 0 63 9 17 8 66 21 109 29 67 11 93 11 174 -1 52 -8 105 -12 118 -10 25 5 39 -8 21 -18 -11 -8 33 -35 57 -35 8 0 14 -4 14 -9 0 -12 59 -11 66 0 5 8 -2 18 -35 55 -7 8 -11 18 -7 21 9 9 -113 65 -125 57 -5 -3 -26 0 -47 7 -57 20 -62 21 -139 26 -50 4 -73 2 -73 -6z m-200 -91 c0 -5 -5 -10 -11 -10 -5 0 -7 5 -4 10 3 6 8 10 11 10 2 0 4 -4 4 -10z m520 -1104 c0 -3 -4 -8 -10 -11 -5 -3 -10 -1 -10 4 0 6 5 11 10 11 6 0 10 -2 10 -4z m-265 -26 c3 -5 2 -10 -4 -10 -5 0 -13 5 -16 10 -3 6 -2 10 4 10 5 0 13 -4 16 -10z m48 3 c-7 -2 -19 -2 -25 0 -7 3 -2 5 12 5 14 0 19 -2 13 -5z m-103 -13 c0 -5 -7 -10 -15 -10 -8 0 -15 5 -15 10 0 6 7 10 15 10 8 0 15 -4 15 -10z"/>
<path d="M1490 1590 c0 -5 7 -10 16 -10 8 0 12 5 9 10 -3 6 -10 10 -16 10 -5 0 -9 -4 -9 -10z"/>
<path d="M1524 1548 c-4 -13 -13 -27 -21 -33 -11 -8 -2 -23 46 -73 33 -35 66 -76 73 -93 13 -29 32 -38 43 -19 3 6 11 10 17 10 6 0 1 -11 -11 -24 -14 -15 -19 -26 -12 -31 6 -3 11 -19 11 -35 0 -35 40 -70 80 -70 31 0 30 -7 1 103 -11 43 -71 156 -71 134 0 -15 -2 -15 -20 3 -12 12 -17 26 -13 37 5 12 2 15 -10 10 -11 -4 -14 -2 -10 9 3 8 0 21 -7 30 -11 12 -15 12 -22 2 -7 -10 -8 -10 -7 2 3 29 -1 37 -26 48 -33 15 -32 16 -41 -10z m26 -38 c0 -5 -4 -10 -10 -10 -5 0 -10 5 -10 10 0 6 5 10 10 10 6 0 10 -4 10 -10z m34 -55 c-6 -16 -24 -21 -24 -7 0 11 11 22 21 22 5 0 6 -7 3 -15z m126 -165 c0 -5 -4 -10 -10 -10 -5 0 -10 5 -10 10 0 6 5 10 10 10 6 0 10 -4 10 -10z"/>
<path d="M1700 940 c0 -6 -4 -8 -10 -5 -5 3 -20 -5 -32 -20 -21 -23 -32 -26 -143 -34 -66 -5 -153 -7 -194 -5 -76 3 -161 -13 -161 -31 1 -36 18 -40 167 -42 81 -1 162 -2 178 -3 17 -1 39 0 50 2 17 2 20 -2 19 -29 0 -18 4 -33 9 -33 5 0 4 -6 -2 -14 -6 -7 -9 -21 -5 -30 5 -12 2 -15 -10 -10 -9 3 -16 1 -16 -5 0 -20 29 -24 45 -7 13 13 21 14 38 5 18 -10 25 -8 50 22 21 25 27 41 22 59 -3 14 -7 30 -8 35 -1 6 3 11 8 13 6 1 10 -2 10 -7 0 -5 3 -12 7 -16 7 -8 28 59 28 92 0 12 4 23 9 25 4 2 11 12 15 24 5 18 1 20 -34 22 -24 2 -40 -2 -40 -8z m-240 -90 c0 -5 -4 -10 -10 -10 -5 0 -10 5 -10 10 0 6 5 10 10 10 6 0 10 -4 10 -10z"/>
<path d="M1596 627 c3 -10 9 -15 12 -12 3 3 0 11 -7 18 -10 9 -11 8 -5 -6z"/>
<path d="M1480 620 c0 -5 4 -10 9 -10 6 0 13 5 16 10 3 6 -1 10 -9 10 -9 0 -16 -4 -16 -10z"/>
</g>
</g>
  <g id="id9:id9" transform="matrix(1.25,0,0,1.25,0.0,0.0)"><g transform="translate(0.000000,87.200000) scale(0.040000,-0.040000)" fill="#b3603d" stroke="none">
<path d="M1083 1733 c32 -2 81 -2 110 0 29 2 3 3 -58 3 -60 0 -84 -1 -52 -3z"/>
<path d="M958 1713 c7 -3 16 -2 19 1 4 3 -2 6 -13 5 -11 0 -14 -3 -6 -6z"/>
<path d="M1308 1713 c7 -3 16 -2 19 1 4 3 -2 6 -13 5 -11 0 -14 -3 -6 -6z"/>
<path d="M1420 1676 c0 -2 7 -7 16 -10 8 -3 12 -2 9 4 -6 10 -25 14 -25 6z"/>
<path d="M1043 1583 c9 -2 23 -2 30 0 6 3 -1 5 -18 5 -16 0 -22 -2 -12 -5z"/>
<path d="M1203 1583 c9 -2 25 -2 35 0 9 3 1 5 -18 5 -19 0 -27 -2 -17 -5z"/>
<path d="M1288 1568 c5 -5 16 -8 23 -6 8 3 3 7 -10 11 -17 4 -21 3 -13 -5z"/>
<path d="M1620 1538 c41 -45 50 -53 50 -45 0 2 -21 23 -47 47 l-48 45 45 -47z"/>
<path d="M1347 1549 c7 -7 15 -10 18 -7 3 3 -2 9 -12 12 -14 6 -15 5 -6 -5z"/>
<path d="M649 1533 c-13 -16 -12 -17 4 -4 9 7 17 15 17 17 0 8 -8 3 -21 -13z"/>
<path d="M1387 1529 c7 -7 15 -10 18 -7 3 3 -2 9 -12 12 -14 6 -15 5 -6 -5z"/>
<path d="M609 1483 c-13 -16 -12 -17 4 -4 9 7 17 15 17 17 0 8 -8 3 -21 -13z"/>
<path d="M1460 1486 c0 -2 8 -10 18 -17 15 -13 16 -12 3 4 -13 16 -21 21 -21 13z"/>
<path d="M769 1443 l-34 -38 38 34 c34 33 42 41 34 41 -2 0 -19 -17 -38 -37z"/>
<path d="M552 1400 c-18 -29 -15 -38 4 -12 9 13 14 25 12 27 -2 2 -9 -5 -16 -15z"/>
<path d="M1540 1406 c0 -2 8 -10 18 -17 15 -13 16 -12 3 4 -13 16 -21 21 -21 13z"/>
<path d="M1746 1357 c3 -10 9 -15 12 -12 3 3 0 11 -7 18 -10 9 -11 8 -5 -6z"/>
<path d="M525 1349 c-4 -6 -5 -12 -2 -15 2 -3 7 2 10 11 7 17 1 20 -8 4z"/>
<path d="M1600 1321 c0 -6 4 -13 10 -16 6 -3 7 1 4 9 -7 18 -14 21 -14 7z"/>
<path d="M1620 1281 c0 -6 4 -13 10 -16 6 -3 7 1 4 9 -7 18 -14 21 -14 7z"/>
<path d="M1641 1234 c0 -11 3 -14 6 -6 3 7 2 16 -1 19 -3 4 -6 -2 -5 -13z"/>
<path d="M1792 1230 c0 -14 2 -19 5 -12 2 6 2 18 0 25 -3 6 -5 1 -5 -13z"/>
<path d="M482 1220 c0 -14 2 -19 5 -12 2 6 2 18 0 25 -3 6 -5 1 -5 -13z"/>
<path d="M631 1214 c0 -11 3 -14 6 -6 3 7 2 16 -1 19 -3 4 -6 -2 -5 -13z"/>
<path d="M1679 1167 l-16 -22 73 3 c50 3 71 7 68 15 -2 7 -19 13 -37 14 -17 1 -41 4 -52 7 -13 3 -26 -3 -36 -17z"/>
<path d="M614 1065 c0 -49 1 -71 3 -48 2 23 2 64 0 90 -2 26 -3 8 -3 -42z"/>
<path d="M463 1060 c0 -36 2 -50 4 -32 2 17 2 47 0 65 -2 17 -4 3 -4 -33z"/>
<path d="M1720 970 c52 -6 53 -7 15 -10 -22 -1 -46 -3 -54 -4 -8 0 -16 -8 -18 -16 -3 -9 -1 -11 4 -4 7 9 38 13 120 17 7 0 14 5 16 12 3 7 -18 11 -67 12 l-71 1 55 -8z"/>
<path d="M482 910 c0 -14 2 -19 5 -12 2 6 2 18 0 25 -3 6 -5 1 -5 -13z"/>
<path d="M1158 913 c12 -2 32 -2 45 0 12 2 2 4 -23 4 -25 0 -35 -2 -22 -4z"/>
<path d="M1618 903 c7 -3 16 -2 19 1 4 3 -2 6 -13 5 -11 0 -14 -3 -6 -6z"/>
<path d="M1788 887 c-3 -19 -2 -25 4 -19 6 6 8 18 6 28 -3 14 -5 12 -10 -9z"/>
<path d="M647 860 c3 -11 9 -22 13 -25 5 -3 6 4 3 15 -3 11 -9 22 -13 25 -5 3 -6 -4 -3 -15z"/>
<path d="M497 849 c4 -13 8 -18 11 -10 2 7 -1 18 -6 23 -8 8 -9 4 -5 -13z"/>
<path d="M1746 773 c-6 -14 -5 -15 5 -6 7 7 10 15 7 18 -3 3 -9 -2 -12 -12z"/>
<path d="M1238 763 c56 -2 148 -2 205 0 56 1 10 3 -103 3 -113 0 -159 -2 -102 -3z"/>
<path d="M1726 733 c-6 -14 -5 -15 5 -6 7 7 10 15 7 18 -3 3 -9 -2 -12 -12z"/>
<path d="M760 698 c41 -45 50 -53 50 -45 0 2 -21 23 -47 47 l-48 45 45 -47z"/>
<path d="M1519 693 l-34 -38 38 34 c34 33 42 41 34 41 -2 0 -19 -17 -38 -37z"/>
<path d="M1639 613 c-13 -16 -12 -17 4 -4 16 13 21 21 13 21 -2 0 -10 -8 -17 -17z"/>
<path d="M872 604 c10 -10 20 -16 22 -13 3 3 -5 11 -17 18 -21 13 -21 12 -5 -5z"/>
<path d="M660 586 c0 -2 8 -10 18 -17 15 -13 16 -12 3 4 -13 16 -21 21 -21 13z"/>
<path d="M930 576 c0 -2 7 -7 16 -10 8 -3 12 -2 9 4 -6 10 -25 14 -25 6z"/>
<path d="M1325 570 c-3 -6 1 -7 9 -4 18 7 21 14 7 14 -6 0 -13 -4 -16 -10z"/>
<path d="M1584 558 l-19 -23 23 19 c21 18 27 26 19 26 -2 0 -12 -10 -23 -22z"/>
<path d="M978 553 c7 -3 16 -2 19 1 4 3 -2 6 -13 5 -11 0 -14 -3 -6 -6z"/>
<path d="M1288 553 c7 -3 16 -2 19 1 4 3 -2 6 -13 5 -11 0 -14 -3 -6 -6z"/>
<path d="M737 519 c12 -12 24 -21 27 -18 2 2 -8 13 -22 23 l-27 19 22 -24z"/>
<path d="M1093 533 c26 -2 67 -2 90 0 23 2 2 3 -48 3 -49 0 -68 -1 -42 -3z"/>
<path d="M1460 470 c-9 -6 -10 -10 -3 -10 6 0 15 5 18 10 8 12 4 12 -15 0z"/>
<path d="M918 423 c7 -3 16 -2 19 1 4 3 -2 6 -13 5 -11 0 -14 -3 -6 -6z"/>
<path d="M1358 423 c7 -3 16 -2 19 1 4 3 -2 6 -13 5 -11 0 -14 -3 -6 -6z"/>
<path d="M978 403 c6 -2 18 -2 25 0 6 3 1 5 -13 5 -14 0 -19 -2 -12 -5z"/>
<path d="M1288 403 c7 -3 16 -2 19 1 4 3 -2 6 -13 5 -11 0 -14 -3 -6 -6z"/>
<path d="M1108 383 c12 -2 30 -2 40 0 9 3 -1 5 -23 4 -22 0 -30 -2 -17 -4z"/>
</g>
</g>
  <g id="id10:id10" transform="matrix(1.25,0,0,1.25,0.0,0.0)"><g transform="translate(0.000000,87.200000) scale(0.040000,-0.040000)" fill="#8d462a" stroke="none">
<path d="M1240 1736 c0 -2 11 -6 25 -8 13 -3 22 -1 19 3 -5 9 -44 13 -44 5z"/>
<path d="M684 1568 l-19 -23 23 19 c21 18 27 26 19 26 -2 0 -12 -10 -23 -22z"/>
<path d="M1108 1583 c18 -2 45 -2 60 0 15 2 0 4 -33 4 -33 0 -45 -2 -27 -4z"/>
<path d="M799 1463 c-13 -16 -12 -17 4 -4 9 7 17 15 17 17 0 8 -8 3 -21 -13z"/>
<path d="M1510 1436 c0 -2 8 -10 18 -17 15 -13 16 -12 3 4 -13 16 -21 21 -21 13z"/>
<path d="M729 1393 c-13 -16 -12 -17 4 -4 16 13 21 21 13 21 -2 0 -10 -8 -17 -17z"/>
<path d="M1786 1267 c3 -10 9 -15 12 -12 3 3 0 11 -7 18 -10 9 -11 8 -5 -6z"/>
<path d="M485 1259 c-4 -6 -5 -12 -2 -15 2 -3 7 2 10 11 7 17 1 20 -8 4z"/>
<path d="M626 1185 c-9 -26 -7 -32 5 -12 6 10 9 21 6 23 -2 3 -7 -2 -11 -11z"/>
<path d="M1802 1180 c0 -14 2 -19 5 -12 2 6 2 18 0 25 -3 6 -5 1 -5 -13z"/>
<path d="M1656 1153 c-6 -14 -5 -15 5 -6 7 7 10 15 7 18 -3 3 -9 -2 -12 -12z"/>
<path d="M462 1140 c0 -14 2 -19 5 -12 2 6 2 18 0 25 -3 6 -5 1 -5 -13z"/>
<path d="M461 984 c0 -11 3 -14 6 -6 3 7 2 16 -1 19 -3 4 -6 -2 -5 -13z"/>
<path d="M1660 964 c0 -7 19 -9 53 -6 69 5 70 9 3 14 -35 2 -56 -1 -56 -8z"/>
<path d="M1804 965 c-3 -8 -4 -20 -2 -27 3 -7 7 -1 10 15 6 29 1 36 -8 12z"/>
<path d="M1435 920 l-220 -6 217 -2 c136 -1 219 2 223 8 3 6 5 9 3 8 -2 -1 -102 -5 -223 -8z"/>
<path d="M1127 913 c-10 -9 -9 -141 1 -146 4 -3 7 30 7 74 0 43 0 79 -1 79 0 0 -4 -3 -7 -7z"/>
<path d="M1785 859 c-4 -6 -5 -12 -2 -15 2 -3 7 2 10 11 7 17 1 20 -8 4z"/>
<path d="M1549 761 c13 -8 13 -12 1 -28 -13 -17 -13 -17 4 -1 19 16 15 38 -7 38 -8 0 -7 -4 2 -9z"/>
<path d="M1674 648 l-19 -23 23 19 c21 18 27 26 19 26 -2 0 -12 -10 -23 -22z"/>
<path d="M615 630 c10 -11 20 -20 23 -20 3 0 -3 9 -13 20 -10 11 -20 20 -23 20 -3 0 3 -9 13 -20z"/>
<path d="M1609 573 l-34 -38 38 34 c20 19 37 36 37 38 0 8 -8 0 -41 -34z"/>
<path d="M705 540 c10 -11 20 -20 23 -20 3 0 -3 9 -13 20 -10 11 -20 20 -23 20 -3 0 3 -9 13 -20z"/>
<path d="M1015 550 c27 -12 43 -12 25 0 -8 5 -22 9 -30 9 -10 0 -8 -3 5 -9z"/>
<path d="M1544 518 l-19 -23 23 19 c21 18 27 26 19 26 -2 0 -12 -10 -23 -22z"/>
<path d="M1320 410 c-8 -5 -10 -10 -5 -10 6 0 17 5 25 10 8 5 11 10 5 10 -5 0 -17 -5 -25 -10z"/>
<path d="M1248 393 c7 -3 16 -2 19 1 4 3 -2 6 -13 5 -11 0 -14 -3 -6 -6z"/>
<path d="M1058 383 c6 -2 18 -2 25 0 6 3 1 5 -13 5 -14 0 -19 -2 -12 -5z"/>
<path d="M1178 383 c12 -2 30 -2 40 0 9 3 -1 5 -23 4 -22 0 -30 -2 -17 -4z"/>
</g>
</g>
  <g id="id11:id11" transform="matrix(1.25,0,0,1.25,0.0,0.0)"><g transform="translate(0.000000,87.200000) scale(0.040000,-0.040000)" fill="#5a5d5e" stroke="none">
<path d="M1788 1743 c7 -3 16 -2 19 1 4 3 -2 6 -13 5 -11 0 -14 -3 -6 -6z"/>
<path d="M2195 1580 c10 -11 20 -20 23 -20 3 0 -3 9 -13 20 -10 11 -20 20 -23 20 -3 0 3 -9 13 -20z"/>
<path d="M2120 1425 c19 -19 36 -35 39 -35 3 0 -10 16 -29 35 -19 19 -36 35 -39 35 -3 0 10 -16 29 -35z"/>
<path d="M2271 1114 c0 -11 3 -14 6 -6 3 7 2 16 -1 19 -3 4 -6 -2 -5 -13z"/>
<path d="M2272 1025 c0 -16 2 -22 5 -12 2 9 2 23 0 30 -3 6 -5 -1 -5 -18z"/>
<path d="M1745 529 c-4 -6 -5 -12 -2 -15 2 -3 7 2 10 11 7 17 1 20 -8 4z"/>
</g>
</g>
  <g id="id12:id12" transform="matrix(1.25,0,0,1.25,0.0,0.0)"><g transform="translate(0.000000,87.200000) scale(0.040000,-0.040000)" fill="#602415" stroke="none">
<path d="M1107 1743 c18 -2 50 -2 70 0 21 2 7 4 -32 4 -38 0 -55 -2 -38 -4z"/>
<path d="M970 1730 c-21 -7 -21 -8 -5 -9 11 0 27 4 35 9 18 11 5 11 -30 0z"/>
<path d="M1288 1728 c6 -6 18 -8 28 -6 14 3 12 5 -9 10 -19 3 -25 2 -19 -4z"/>
<path d="M910 1710 c-8 -5 -10 -10 -5 -10 6 0 17 5 25 10 8 5 11 10 5 10 -5 0 -17 -5 -25 -10z"/>
<path d="M649 1543 l-34 -38 38 34 c34 33 42 41 34 41 -2 0 -19 -17 -38 -37z"/>
<path d="M1028 1573 c7 -3 16 -2 19 1 4 3 -2 6 -13 5 -11 0 -14 -3 -6 -6z"/>
<path d="M1238 1573 c6 -2 18 -2 25 0 6 3 1 5 -13 5 -14 0 -19 -2 -12 -5z"/>
<path d="M1600 1566 c0 -2 8 -10 18 -17 15 -13 16 -12 3 4 -13 16 -21 21 -21 13z"/>
<path d="M1300 1556 c0 -2 9 -6 20 -9 11 -3 18 -1 14 4 -5 9 -34 13 -34 5z"/>
<path d="M1430 1497 c0 -3 17 -17 37 -33 20 -15 33 -23 29 -16 -8 13 -66 56 -66 49z"/>
<path d="M764 1428 l-19 -23 23 19 c21 18 27 26 19 26 -2 0 -12 -10 -23 -22z"/>
<path d="M1530 1406 c0 -2 8 -10 18 -17 15 -13 16 -12 3 4 -13 16 -21 21 -21 13z"/>
<path d="M729 1383 c-13 -16 -12 -17 4 -4 16 13 21 21 13 21 -2 0 -10 -8 -17 -17z"/>
<path d="M1760 1341 c0 -6 4 -13 10 -16 6 -3 7 1 4 9 -7 18 -14 21 -14 7z"/>
<path d="M506 1323 c-6 -14 -5 -15 5 -6 7 7 10 15 7 18 -3 3 -9 -2 -12 -12z"/>
<path d="M1780 1291 c0 -6 4 -13 10 -16 6 -3 7 1 4 9 -7 18 -14 21 -14 7z"/>
<path d="M486 1273 c-6 -14 -5 -15 5 -6 7 7 10 15 7 18 -3 3 -9 -2 -12 -12z"/>
<path d="M645 1239 c-4 -6 -5 -12 -2 -15 2 -3 7 2 10 11 7 17 1 20 -8 4z"/>
<path d="M1802 1220 c0 -14 2 -19 5 -12 2 6 2 18 0 25 -3 6 -5 1 -5 -13z"/>
<path d="M471 1204 c0 -11 3 -14 6 -6 3 7 2 16 -1 19 -3 4 -6 -2 -5 -13z"/>
<path d="M1811 1164 c0 -11 3 -14 6 -6 3 7 2 16 -1 19 -3 4 -6 -2 -5 -13z"/>
<path d="M622 1130 c0 -19 2 -27 5 -17 2 9 2 25 0 35 -3 9 -5 1 -5 -18z"/>
<path d="M451 1054 c0 -11 3 -14 6 -6 3 7 2 16 -1 19 -3 4 -6 -2 -5 -13z"/>
<path d="M622 1000 c0 -19 2 -27 5 -17 2 9 2 25 0 35 -3 9 -5 1 -5 -18z"/>
<path d="M1647 941 c-4 -17 -3 -21 5 -13 5 5 8 16 6 23 -3 8 -7 3 -11 -10z"/>
<path d="M472 920 c0 -14 2 -19 5 -12 2 6 2 18 0 25 -3 6 -5 1 -5 -13z"/>
<path d="M1802 905 c0 -16 2 -22 5 -12 2 9 2 23 0 30 -3 6 -5 -1 -5 -18z"/>
<path d="M486 857 c3 -10 9 -15 12 -12 3 3 0 11 -7 18 -10 9 -11 8 -5 -6z"/>
<path d="M660 851 c0 -6 4 -13 10 -16 6 -3 7 1 4 9 -7 18 -14 21 -14 7z"/>
<path d="M1528 753 l23 -5 -26 -36 -26 -37 30 35 c38 42 39 50 4 49 -25 -2 -25 -2 -5 -6z"/>
<path d="M770 695 c19 -19 36 -35 39 -35 3 0 -10 16 -29 35 -19 19 -36 35 -39 35 -3 0 10 -16 29 -35z"/>
<path d="M1459 653 c-13 -16 -12 -17 4 -4 16 13 21 21 13 21 -2 0 -10 -8 -17 -17z"/>
<path d="M847 629 c7 -7 15 -10 18 -7 3 3 -2 9 -12 12 -14 6 -15 5 -6 -5z"/>
<path d="M1659 623 c-13 -16 -12 -17 4 -4 16 13 21 21 13 21 -2 0 -10 -8 -17 -17z"/>
<path d="M630 607 c0 -2 15 -16 33 -33 l32 -29 -29 33 c-28 30 -36 37 -36 29z"/>
<path d="M917 589 c7 -7 15 -10 18 -7 3 3 -2 9 -12 12 -14 6 -15 5 -6 -5z"/>
<path d="M968 568 c5 -5 16 -8 23 -6 8 3 3 7 -10 11 -17 4 -21 3 -13 -5z"/>
<path d="M1288 563 c7 -3 16 -2 19 1 4 3 -2 6 -13 5 -11 0 -14 -3 -6 -6z"/>
<path d="M1215 550 c-28 -7 -28 -8 -5 -9 14 0 32 4 40 9 17 11 8 11 -35 0z"/>
<path d="M1058 543 c6 -2 18 -2 25 0 6 3 1 5 -13 5 -14 0 -19 -2 -12 -5z"/>
<path d="M988 393 c6 -2 18 -2 25 0 6 3 1 5 -13 5 -14 0 -19 -2 -12 -5z"/>
<path d="M1278 393 c6 -2 18 -2 25 0 6 3 1 5 -13 5 -14 0 -19 -2 -12 -5z"/>
</g>
</g>
  <g id="id13:id13" transform="matrix(1.25,0,0,1.25,0.0,0.0)"><g transform="translate(0.000000,87.200000) scale(0.040000,-0.040000)" fill="#2f3031" stroke="none">
<path d="M1749 1743 c-13 -17 -13 -17 6 -3 11 8 22 16 24 17 2 2 0 3 -6 3 -6 0 -17 -8 -24 -17z"/>
<path d="M1828 1743 c12 -2 32 -2 45 0 12 2 2 4 -23 4 -25 0 -35 -2 -22 -4z"/>
<path d="M1920 1726 c0 -2 13 -6 29 -8 17 -2 28 -1 25 4 -5 8 -54 12 -54 4z"/>
<path d="M1743 1665 c0 -27 2 -38 4 -22 2 15 2 37 0 50 -2 12 -4 0 -4 -28z"/>
<path d="M1990 1706 c0 -2 9 -6 20 -9 11 -3 18 -1 14 4 -5 9 -34 13 -34 5z"/>
<path d="M2096 1655 c10 -8 26 -14 34 -15 8 0 2 7 -14 15 -36 19 -45 19 -20 0z"/>
<path d="M1740 1604 c0 -23 29 -35 77 -31 l48 3 -52 2 c-38 2 -55 7 -62 20 -6 9 -11 12 -11 6z"/>
<path d="M2235 1550 c21 -22 41 -40 44 -40 3 0 -13 18 -34 40 -21 22 -41 40 -44 40 -3 0 13 -18 34 -40z"/>
<path d="M1898 1553 c6 -2 18 -2 25 0 6 3 1 5 -13 5 -14 0 -19 -2 -12 -5z"/>
<path d="M2020 1496 c0 -2 9 -6 20 -9 11 -3 18 -1 14 4 -5 9 -34 13 -34 5z"/>
<path d="M2280 1496 c0 -2 8 -10 18 -17 15 -13 16 -12 3 4 -13 16 -21 21 -21 13z"/>
<path d="M2204 1306 c14 -26 26 -53 26 -61 0 -7 4 -17 10 -20 6 -4 7 1 4 12 -11 33 -48 104 -57 110 -5 3 3 -16 17 -41z"/>
<path d="M2380 1336 c0 -8 4 -17 9 -20 5 -4 7 3 4 14 -6 23 -13 26 -13 6z"/>
<path d="M2401 1284 c0 -11 3 -14 6 -6 3 7 2 16 -1 19 -3 4 -6 -2 -5 -13z"/>
<path d="M2422 1215 c0 -16 2 -22 5 -12 2 9 2 23 0 30 -3 6 -5 -1 -5 -18z"/>
<path d="M2252 1185 c0 -16 2 -22 5 -12 2 9 2 23 0 30 -3 6 -5 -1 -5 -18z"/>
<path d="M1114 1137 c-3 -8 -3 -45 -1 -83 l3 -69 2 77 2 78 268 3 267 2 -268 3 c-217 2 -269 -1 -273 -11z"/>
<path d="M1933 1143 l107 -4 0 -79 0 -79 -112 -4 -113 -3 115 0 115 1 0 85 0 85 -110 1 -110 0 108 -3z"/>
<path d="M2443 1060 c0 -47 2 -66 4 -42 2 23 2 61 0 85 -2 23 -4 4 -4 -43z"/>
<path d="M2272 1075 c0 -16 2 -22 5 -12 2 9 2 23 0 30 -3 6 -5 -1 -5 -18z"/>
<path d="M1258 973 c72 -2 192 -2 265 0 72 1 13 3 -133 3 -146 0 -205 -2 -132 -3z"/>
<path d="M2252 945 c0 -16 2 -22 5 -12 2 9 2 23 0 30 -3 6 -5 -1 -5 -18z"/>
<path d="M2422 915 c0 -16 2 -22 5 -12 2 9 2 23 0 30 -3 6 -5 -1 -5 -18z"/>
<path d="M2227 871 c-4 -17 -3 -21 5 -13 5 5 8 16 6 23 -3 8 -7 3 -11 -10z"/>
<path d="M2398 837 c-3 -19 -2 -25 4 -19 6 6 8 18 6 28 -3 14 -5 12 -10 -9z"/>
<path d="M2206 823 c-6 -14 -5 -15 5 -6 7 7 10 15 7 18 -3 3 -9 -2 -12 -12z"/>
<path d="M2365 759 c-4 -6 -5 -12 -2 -15 2 -3 7 2 10 11 7 17 1 20 -8 4z"/>
<path d="M2139 723 c-13 -16 -12 -17 4 -4 9 7 17 15 17 17 0 8 -8 3 -21 -13z"/>
<path d="M2311 667 c-13 -21 -12 -21 5 -5 10 10 16 20 13 22 -3 3 -11 -5 -18 -17z"/>
<path d="M1975 600 c-3 -6 1 -7 9 -4 18 7 21 14 7 14 -6 0 -13 -4 -16 -10z"/>
<path d="M2239 583 l-24 -28 28 24 c15 14 27 26 27 28 0 8 -8 1 -31 -24z"/>
<path d="M1938 583 c7 -3 16 -2 19 1 4 3 -2 6 -13 5 -11 0 -14 -3 -6 -6z"/>
<path d="M1873 563 c9 -2 23 -2 30 0 6 3 -1 5 -18 5 -16 0 -22 -2 -12 -5z"/>
<path d="M1746 542 c-2 -4 13 -6 35 -4 21 2 39 6 39 8 0 7 -69 4 -74 -4z"/>
<path d="M1743 465 c0 -27 2 -38 4 -22 2 15 2 37 0 50 -2 12 -4 0 -4 -28z"/>
<path d="M2119 483 c-13 -17 -13 -17 6 -3 11 8 22 16 24 17 2 2 0 3 -6 3 -6 0 -17 -8 -24 -17z"/>
<path d="M2016 431 c-4 -5 3 -7 14 -4 23 6 26 13 6 13 -8 0 -17 -4 -20 -9z"/>
<path d="M1978 413 c7 -3 16 -2 19 1 4 3 -2 6 -13 5 -11 0 -14 -3 -6 -6z"/>
<path d="M1743 390 c3 -11 19 -15 63 -16 l59 -1 -55 4 c-30 2 -58 10 -63 16 -6 8 -7 7 -4 -3z"/>
<path d="M1908 393 c6 -2 18 -2 25 0 6 3 1 5 -13 5 -14 0 -19 -2 -12 -5z"/>
</g>
</g>
  <g id="id14:id14" transform="matrix(1.25,0,0,1.25,0.0,0.0)"><g transform="translate(0.000000,87.200000) scale(0.040000,-0.040000)" fill="#370f09" stroke="none">
<path d="M981 1741 c-8 -5 5 -7 35 -4 68 6 77 11 24 12 -25 0 -51 -3 -59 -8z"/>
<path d="M1211 1746 c2 -2 26 -6 53 -9 30 -3 43 -1 35 4 -13 8 -97 13 -88 5z"/>
<path d="M916 1721 c-4 -5 3 -7 14 -4 23 6 26 13 6 13 -8 0 -17 -4 -20 -9z"/>
<path d="M1330 1726 c0 -2 9 -6 20 -9 11 -3 18 -1 14 4 -5 9 -34 13 -34 5z"/>
<path d="M852 1696 c-31 -18 -41 -29 -17 -20 38 15 70 34 55 33 -8 -1 -25 -7 -38 -13z"/>
<path d="M1409 1695 c42 -19 50 -19 25 0 -10 8 -28 14 -39 14 -14 0 -10 -4 14 -14z"/>
<path d="M1470 1666 c0 -2 7 -7 16 -10 8 -3 12 -2 9 4 -6 10 -25 14 -25 6z"/>
<path d="M1535 1628 c70 -55 131 -118 171 -178 24 -36 44 -61 44 -57 0 34 -130 182 -200 228 -25 17 -32 20 -15 7z"/>
<path d="M696 1592 c-46 -34 -144 -146 -145 -165 -1 -5 -10 -22 -22 -38 -11 -16 -19 -34 -17 -39 2 -6 14 11 28 37 40 77 109 163 162 200 41 30 55 43 46 43 -2 0 -25 -17 -52 -38z"/>
<path d="M1093 1573 c26 -2 68 -2 95 0 26 2 4 3 -48 3 -52 0 -74 -1 -47 -3z"/>
<path d="M990 1560 c-21 -7 -21 -8 -5 -9 11 0 27 4 35 9 18 11 5 11 -30 0z"/>
<path d="M1260 1560 c8 -5 22 -10 30 -10 13 0 13 1 0 10 -8 5 -22 10 -30 10 -13 0 -13 -1 0 -10z"/>
<path d="M935 1540 c-16 -7 -17 -9 -3 -9 9 -1 20 4 23 9 7 11 7 11 -20 0z"/>
<path d="M1364 1525 c36 -19 45 -19 20 0 -10 8 -26 14 -34 15 -8 0 -2 -7 14 -15z"/>
<path d="M811 1460 c-34 -28 -61 -54 -61 -57 0 -6 18 8 75 59 16 16 36 28 43 28 6 0 12 5 12 10 0 16 -6 13 -69 -40z"/>
<path d="M1436 1483 c56 -51 86 -75 90 -70 2 2 -24 25 -58 51 -35 26 -49 35 -32 19z"/>
<path d="M1530 1394 c0 -3 14 -19 31 -37 l31 -32 -27 38 c-26 35 -35 43 -35 31z"/>
<path d="M1756 1365 c4 -8 8 -15 10 -15 2 0 4 7 4 15 0 8 -4 15 -10 15 -5 0 -7 -7 -4 -15z"/>
<path d="M686 1310 c-9 -17 -14 -30 -9 -30 8 0 35 51 30 56 -2 2 -11 -10 -21 -26z"/>
<path d="M1777 1319 c4 -13 8 -18 11 -10 2 7 -1 18 -6 23 -8 8 -9 4 -5 -13z"/>
<path d="M493 1315 c-3 -9 -3 -18 -1 -21 3 -3 8 4 11 16 6 23 -1 27 -10 5z"/>
<path d="M1590 1315 c0 -5 5 -17 10 -25 5 -8 10 -10 10 -5 0 6 -5 17 -10 25 -5 8 -10 11 -10 5z"/>
<path d="M474 1266 c-3 -8 -4 -23 -2 -33 3 -11 6 -6 9 15 6 34 2 42 -7 18z"/>
<path d="M657 1251 c-4 -17 -3 -21 5 -13 5 5 8 16 6 23 -3 8 -7 3 -11 -10z"/>
<path d="M1610 1261 c0 -5 5 -13 10 -16 6 -3 10 -2 10 4 0 5 -4 13 -10 16 -5 3 -10 2 -10 -4z"/>
<path d="M1801 1254 c0 -11 3 -14 6 -6 3 7 2 16 -1 19 -3 4 -6 -2 -5 -13z"/>
<path d="M1631 1220 c0 -8 4 -22 9 -30 12 -18 12 -2 0 25 -6 13 -9 15 -9 5z"/>
<path d="M641 1205 c-1 -11 -4 -31 -7 -45 -5 -22 -4 -23 6 -7 6 10 9 30 7 45 -3 18 -5 20 -6 7z"/>
<path d="M1810 1200 c0 -8 5 -22 10 -30 9 -13 10 -13 10 0 0 8 -5 22 -10 30 -9 13 -10 13 -10 0z"/>
<path d="M456 1185 c-3 -9 -5 -40 -4 -68 l1 -52 7 65 c7 70 6 80 -4 55z"/>
<path d="M623 1065 c0 -22 2 -30 4 -17 2 12 2 30 0 40 -3 9 -5 -1 -4 -23z"/>
<path d="M451 999 c0 -24 4 -53 9 -64 5 -12 6 4 3 40 -7 72 -13 85 -12 24z"/>
<path d="M637 955 c3 -22 7 -42 9 -44 8 -9 2 45 -6 64 -7 14 -8 8 -3 -20z"/>
<path d="M1813 944 c0 -17 2 -22 7 -13 5 6 6 18 3 26 -8 19 -10 16 -10 -13z"/>
<path d="M1634 940 c-6 -6 -118 -11 -264 -12 l-255 -3 0 -85 0 -85 195 0 195 -1 -192 3 -193 3 0 80 0 80 259 0 c173 0 262 4 266 11 9 14 1 21 -11 9z"/>
<path d="M471 878 c-1 -15 4 -30 9 -33 6 -3 10 -15 10 -26 0 -10 4 -19 10 -19 6 0 4 16 -4 38 -8 20 -17 44 -19 52 -3 8 -6 3 -6 -12z"/>
<path d="M656 877 c3 -10 9 -15 12 -12 3 3 0 11 -7 18 -10 9 -11 8 -5 -6z"/>
<path d="M1801 873 c-1 -6 -4 -20 -7 -30 -5 -17 -5 -17 6 0 6 10 9 23 6 30 -3 9 -5 9 -5 0z"/>
<path d="M676 833 c3 -10 14 -29 25 -43 18 -23 18 -22 -2 18 -22 45 -30 53 -23 25z"/>
<path d="M1776 803 c-6 -14 -5 -15 5 -6 7 7 10 15 7 18 -3 3 -9 -2 -12 -12z"/>
<path d="M510 784 c0 -7 7 -25 15 -40 8 -16 15 -24 15 -18 0 7 -7 25 -15 40 -8 16 -15 24 -15 18z"/>
<path d="M1747 745 c-9 -19 -15 -35 -12 -35 7 0 37 61 33 66 -3 2 -12 -12 -21 -31z"/>
<path d="M740 735 c13 -14 26 -25 28 -25 3 0 -5 11 -18 25 -13 14 -26 25 -28 25 -3 0 5 -11 18 -25z"/>
<path d="M1515 737 c-5 -7 -11 -19 -13 -27 -2 -8 -8 -16 -13 -18 -5 -2 -9 -8 -9 -14 0 -14 26 8 51 44 14 19 16 28 7 28 -7 -1 -17 -6 -23 -13z"/>
<path d="M550 704 c0 -5 7 -18 15 -28 8 -11 15 -16 15 -10 0 5 -7 18 -15 28 -8 11 -15 16 -15 10z"/>
<path d="M800 677 c14 -16 34 -33 45 -39 21 -11 20 -10 -35 37 l-35 30 25 -28z"/>
<path d="M1691 653 c-19 -25 -52 -61 -73 -81 -21 -20 -36 -37 -34 -39 2 -2 21 13 42 34 44 44 108 123 103 128 -2 2 -19 -17 -38 -42z"/>
<path d="M1445 650 c-10 -11 -23 -20 -29 -20 -6 0 -22 -10 -36 -21 -24 -19 -24 -19 16 1 36 18 86 60 72 60 -3 0 -13 -9 -23 -20z"/>
<path d="M619 612 c17 -22 38 -45 48 -53 10 -8 -2 10 -26 39 -51 60 -68 71 -22 14z"/>
<path d="M879 616 c11 -12 51 -29 51 -21 0 2 -14 10 -31 19 -23 12 -28 12 -20 2z"/>
<path d="M940 586 c0 -2 9 -6 20 -9 11 -3 18 -1 14 4 -5 9 -34 13 -34 5z"/>
<path d="M1310 580 c-8 -5 -10 -10 -5 -10 6 0 17 5 25 10 8 5 11 10 5 10 -5 0 -17 -5 -25 -10z"/>
<path d="M1001 566 c2 -2 18 -6 34 -10 22 -5 26 -4 15 4 -14 9 -59 15 -49 6z"/>
<path d="M1230 560 c-11 -8 -7 -9 15 -4 37 8 45 14 19 14 -10 0 -26 -5 -34 -10z"/>
<path d="M717 520 c18 -19 34 -32 36 -29 2 2 -12 17 -32 33 l-36 30 32 -34z"/>
<path d="M1113 543 c15 -2 39 -2 55 0 15 2 2 4 -28 4 -30 0 -43 -2 -27 -4z"/>
<path d="M1539 503 c-13 -16 -12 -17 4 -4 16 13 21 21 13 21 -2 0 -10 -8 -17 -17z"/>
<path d="M1440 449 c-41 -21 -70 -39 -63 -39 13 0 123 57 138 71 14 14 6 11 -75 -32z"/>
<path d="M808 453 c7 -3 16 -2 19 1 4 3 -2 6 -13 5 -11 0 -14 -3 -6 -6z"/>
<path d="M866 425 c10 -8 28 -14 39 -14 14 0 10 4 -14 14 -42 19 -50 19 -25 0z"/>
<path d="M935 400 c3 -5 16 -10 28 -9 21 0 21 1 2 9 -28 12 -37 12 -30 0z"/>
<path d="M1325 400 c-13 -6 -15 -9 -5 -9 8 0 22 4 30 9 18 12 2 12 -25 0z"/>
<path d="M1008 383 c7 -3 16 -2 19 1 4 3 -2 6 -13 5 -11 0 -14 -3 -6 -6z"/>
<path d="M1145 380 l-110 -6 105 -1 c58 -1 116 3 130 7 19 6 20 8 5 7 -11 -1 -69 -4 -130 -7z"/>
</g>
</g>
  <g id="id15:id15" transform="matrix(1.25,0,0,1.25,0.0,0.0)"><g transform="translate(0.000000,87.200000) scale(0.040000,-0.040000)" fill="#020204" stroke="none">
<path d="M0 1090 l0 -1090 1380 0 1380 0 0 1090 0 1090 -1380 0 -1380 0 0 -1090z m1902 649 c9 -5 26 -9 37 -9 12 0 29 -4 39 -9 9 -5 48 -24 87 -42 38 -19 77 -41 86 -49 9 -8 37 -32 63 -53 53 -44 137 -158 170 -232 58 -131 81 -290 55 -389 -6 -22 -15 -59 -21 -81 -12 -46 -68 -168 -80 -173 -4 -2 -8 -10 -8 -17 0 -24 -163 -180 -226 -217 -98 -58 -242 -101 -314 -96 l-45 3 0 85 c0 83 0 85 25 88 105 10 191 39 275 92 151 95 250 325 215 503 -13 69 -19 85 -62 172 -32 63 -136 175 -163 175 -8 0 -15 4 -15 8 0 9 -67 40 -131 60 -19 7 -56 12 -80 12 -25 0 -50 5 -57 12 -15 15 -16 150 -2 164 12 12 126 6 152 -7z m-593 0 c20 -6 44 -15 53 -20 10 -5 26 -9 35 -9 10 0 29 -9 43 -20 14 -11 29 -20 33 -20 18 0 125 -81 168 -127 50 -52 109 -135 109 -152 0 -6 5 -11 10 -11 6 0 10 -8 10 -18 0 -10 4 -22 8 -27 5 -6 14 -30 21 -55 7 -25 17 -60 22 -77 6 -18 8 -37 4 -43 -3 -6 37 -10 107 -12 l113 -3 0 -85 0 -85 -112 -3 c-98 -2 -112 -5 -112 -20 -1 -75 -63 -227 -125 -307 -31 -40 -104 -115 -112 -115 -2 0 -24 -15 -48 -34 -107 -82 -244 -125 -391 -125 -87 0 -196 17 -211 32 -4 4 -17 7 -28 7 -12 0 -32 9 -46 20 -14 11 -33 20 -42 20 -10 0 -18 4 -18 9 0 5 -15 16 -32 24 -57 28 -218 193 -218 225 0 6 -3 12 -7 12 -9 0 -33 49 -33 67 0 7 -4 13 -10 13 -5 0 -10 9 -10 19 0 11 -4 22 -9 25 -15 9 -24 97 -24 221 0 121 6 170 25 215 6 14 15 36 21 50 5 14 14 34 20 45 6 11 17 31 24 45 26 49 100 135 143 168 25 18 52 39 61 45 22 17 57 37 104 60 40 20 53 25 110 45 41 14 300 15 344 1z"/>
<path d="M1005 1558 c-85 -29 -125 -49 -125 -60 0 -4 -6 -8 -13 -8 -24 0 -145 -124 -164 -168 -10 -23 -21 -42 -25 -42 -5 0 -8 -9 -8 -19 0 -11 -4 -22 -9 -25 -21 -14 -32 -209 -16 -296 12 -62 72 -171 125 -226 60 -63 111 -95 203 -133 61 -26 203 -38 257 -23 19 6 55 16 80 23 25 7 57 21 72 31 14 10 30 18 35 18 15 0 94 81 88 90 -3 6 -1 10 4 10 6 0 11 4 11 10 0 6 -79 11 -202 12 l-203 3 0 85 0 85 254 3 c244 2 281 7 281 33 0 5 -116 9 -259 9 -210 0 -261 3 -270 14 -7 9 -11 42 -9 88 l3 73 268 3 c157 1 267 6 267 12 0 10 -11 37 -41 107 -11 24 -19 46 -19 50 0 5 -14 22 -30 40 -17 18 -30 35 -30 38 0 8 -13 20 -75 70 -61 49 -75 57 -158 84 -73 23 -235 28 -292 9z"/>
</g>
</g>
</svg>
