<?xml version="1.0" standalone="no"?>
<!DOCTYPE svg PUBLIC "-//W3C//DTD SVG 20010904//EN"
 "http://www.w3.org/TR/2001/REC-SVG-20010904/DTD/svg10.dtd">
<svg version="1.0" xmlns="http://www.w3.org/2000/svg"
 width="138.000000pt" height="109.000000pt" viewBox="0 0 138.000000 109.000000"
 preserveAspectRatio="xMidYMid meet">
<metadata>
Created by potrace 1.10, written by Peter Selinger 2001-2011
</metadata>
<g transform="translate(0.000000,109.000000) scale(0.050000,-0.050000)"
fill="#000000" stroke="none">
<path d="M960 1902 c0 -20 -113 -53 -155 -45 -27 5 -35 -28 -10 -42 8 -5 4 -6
-10 -2 -14 3 -45 -2 -70 -12 -25 -10 -34 -19 -20 -20 14 0 25 -8 25 -18 0 -9
-19 -15 -43 -13 -56 4 -297 -264 -297 -331 0 -13 -12 -19 -26 -13 -19 7 -27
-9 -28 -53 -1 -35 -8 -118 -16 -186 -21 -172 3 -373 53 -430 21 -25 35 -62 30
-81 -5 -20 -3 -32 4 -28 7 5 31 -4 52 -20 26 -19 30 -28 11 -28 -16 0 15 -45
69 -99 54 -55 104 -96 111 -91 7 4 43 -19 79 -52 46 -42 77 -56 108 -47 30 8
35 6 16 -7 -87 -60 433 -98 524 -38 30 20 69 33 88 30 21 -4 33 5 30 20 -7 32
96 26 120 -6 9 -12 15 -10 15 6 0 15 9 21 20 14 12 -7 15 -23 7 -35 -9 -14 2
-17 30 -10 24 6 38 4 32 -6 -59 -95 281 -65 456 41 169 102 477 450 398 450
-3 0 -1 16 6 35 30 95 36 105 45 80 34 -90 46 56 42 511 -4 503 -4 507 -17
194 -7 -176 -14 -324 -17 -330 -6 -16 -82 144 -82 174 0 104 -281 382 -468
463 -157 68 -432 39 -432 -45 0 -36 -103 -31 -132 6 -13 16 -37 23 -56 15 -19
-7 -29 -4 -23 6 6 9 -34 27 -90 39 -123 27 -379 29 -379 4z m1089 -226 c602
-306 452 -1211 -214 -1290 l-95 -12 0 83 c0 67 7 83 36 83 611 0 664 934 59
1037 -86 14 -119 72 -88 152 13 35 190 3 302 -53z m-619 3 c249 -119 483 -502
302 -495 -58 2 -73 14 -107 85 -253 520 -997 364 -994 -209 1 -442 482 -674
839 -404 133 101 123 109 -130 105 l-220 -3 0 84 0 83 259 -9 c165 -6 267 -2
280 11 15 15 21 13 21 -4 0 -17 16 -16 60 7 78 40 82 -11 13 -160 -303 -647
-1282 -426 -1283 290 0 501 513 832 960 619z m-130 -329 c-1 -28 -6 -32 -17
-15 -29 47 -236 -48 -300 -138 -24 -34 -32 -84 -30 -182 2 -78 -4 -131 -15
-124 -10 6 -18 2 -18 -9 0 -11 9 -25 20 -32 11 -7 20 -32 20 -56 0 -43 -1 -43
-45 6 -119 131 -157 374 -68 424 18 10 33 36 33 58 0 33 9 38 45 27 25 -8 39
-7 31 1 -8 8 -3 26 11 40 64 64 333 64 333 0z m1315 -375 c-5 -47 -8 -8 -8 85
0 94 3 132 8 85 4 -47 4 -123 0 -170z m-575 85 l0 -80 -460 0 -460 0 0 80 0
80 460 0 460 0 0 -80z"/>
</g>
</svg>
